<svg version="1.2" xmlns="http://www.w3.org/2000/svg" viewBox="0 0 104 66" width="104" height="66">
	<title>631f022194d7ef36d9303cbb_Horizontal-svg</title>
	<defs>
		<linearGradient id="g1" x2="1" gradientUnits="userSpaceOnUse" gradientTransform="matrix(-75.58,75.378,-69.834,-70.022,98.993,2)">
			<stop offset="0" stop-color="#95e4b7"/>
			<stop offset=".484" stop-color="#10c1df"/>
			<stop offset="1" stop-color="#1c88d6"/>
		</linearGradient>
	</defs>
	<style>
		.s0 { fill: url(#g1) } 
		.s1 { fill: #000000 } 
	</style>
	<path id="Layer" fill-rule="evenodd" class="s0" d="m2 47.7c0-14.3 11.9-18.4 18.4-18.4 0.5-7.7 8.1-24.1 25.5-26.8 18.8-3 29.5 9.4 33 15.9 8.5 0 23.8 6.2 23.8 24.9 0 15.6-14.3 20.8-21.4 21.7h-64.7c-5.1-0.3-14.6-6.8-14.6-17.3zm49.3-41.8c-15.4 0-27.9 12.5-27.9 27.9 0 15.4 12.5 27.9 27.9 27.9 15.4 0 27.9-12.5 27.9-27.9 0-15.4-12.5-27.9-27.9-27.9zm-3 17.5l-10.5 10.4 10.5 10.4-2.6 2.6-13.1-13 13.1-13zm8.7-2.6l13 13-13 13-2.6-2.6 10.4-10.4-10.4-10.4z"/>
	<g id="Layer" style="opacity: .7">
		<path id="Layer" class="s1" d="m135.9 15v37.8h-4.9v-37.8zm26.5 0l-17 17.8 17.4 20h-6.8l-15.4-18.2v-3l15.6-16.6z"/>
		<path id="Layer" fill-rule="evenodd" class="s1" d="m166.1 38.9q0-13.9 13.1-13.9 13.2 0 13.2 13.9 0 13.9-13.2 13.9-13.1 0-13.1-13.9zm4.8-0.1q0 10 8.3 10 8.3 0 8.3-10 0-9.8-8.3-9.8-8.3 0-8.3 9.8z"/>
		<path id="Layer" fill-rule="evenodd" class="s1" d="m222.5 51.1q-5.1 1.7-12.5 1.7-12.3 0-12.3-14.4 0-13.4 13.1-13.4 3.6 0 6.8 1.4v-11.4h4.9zm-4.9-20.4q-3-1.4-6.8-1.4-8.3 0-8.3 8.9 0 10.5 8.3 10.5 3.8 0 6.8-1z"/>
		<path id="Layer" fill-rule="evenodd" class="s1" d="m241.8 25q11.8 0 11.8 11.7 0 1.7-0.2 3.6h-19.5q0 8.5 9.9 8.5 4.8 0 8.4-1v3.9q-3.6 1.1-8.9 1.1-14.2 0-14.2-14.2 0-13.6 12.7-13.6zm-7.9 11.2h15q-0.2-7.2-7.1-7.2-7.4 0-7.9 7.2z"/>
		<path id="Layer" class="s1" d="m265.6 15v37.8h-4.9v-37.8zm26.5 0l-17 17.8 17.4 20h-6.8l-15.4-18.2v-3l15.6-16.6z"/>
		<path id="Layer" class="s1" d="m302.2 15v37.8h-4.9v-37.8z"/>
		<path id="Layer" fill-rule="evenodd" class="s1" d="m309.1 38.9q0-13.9 13.2-13.9 13.1 0 13.1 13.9 0 13.9-13.1 13.9-13.2 0-13.2-13.9zm4.9-0.1q0 10 8.3 10 8.3 0 8.3-10 0-9.8-8.3-9.8-8.3 0-8.3 9.8z"/>
		<path id="Layer" class="s1" d="m365.9 25v27.8h-3.4l-0.8-3.6q-5 3.6-10.1 3.6-9.6 0-9.6-10.3v-17.5h4.9v17.5q0 6.2 6.1 6.2 4.2 0 8-3.5v-20.2z"/>
		<path id="Layer" fill-rule="evenodd" class="s1" d="m397.3 51.1q-5.1 1.7-12.4 1.7-12.4 0-12.4-14.4 0-13.4 13.1-13.4 3.6 0 6.8 1.4v-11.4h4.9zm-4.9-20.4q-3-1.4-6.8-1.4-8.3 0-8.3 8.9 0 10.5 8.3 10.5 3.8 0 6.8-1z"/>
	</g>
</svg>